<svg xmlns="http://www.w3.org/2000/svg" id="a" viewBox="0 0 48 48"><defs><style>.b{fill:#99c47a}.c{fill:#ff6470}.d{fill:#ffc66d}.e{fill:#68abdf}.f{fill:#f2f2f2}</style></defs><rect width="4" height="12" x="23.41" y="19.41" class="f" rx="2" ry="2" transform="translate(-10.53 25.41) rotate(-45)"/><rect width="4" height="10" x="24.12" y="11.22" class="e" rx="2" ry="2" transform="translate(-3.82 23.22) rotate(-45)"/><rect width="4" height="4" x="17.05" y="7.15" class="b" rx="2" ry="2" transform="translate(-.89 16.15) rotate(-45)"/><rect width="4" height="13" x="12.45" y="7.95" class="d" rx="2" ry="2" transform="translate(-5.99 14.45) rotate(-45)"/><rect width="4" height="16" x="12.1" y="16" class="c" rx="2" ry="2" transform="translate(-12.84 17) rotate(-45)"/><rect width="4" height="12" x="22.31" y="26.38" class="f" rx="2" ry="2" transform="translate(6.5 68.74) rotate(-117)"/><rect width="4" height="12" x="28.6" y="29.58" class="f" rx="2" ry="2" transform="translate(66.38 65.94) rotate(171)"/><rect width="4" height="12" x="33.58" y="24.6" class="f" rx="2" ry="2" transform="translate(71.37 .24) rotate(99)"/><rect width="4" height="12" x="30.38" y="18.31" class="f" rx="2" ry="2" transform="translate(14.57 -12.05) rotate(27)"/></svg>