<svg xmlns="http://www.w3.org/2000/svg" xmlns:xlink="http://www.w3.org/1999/xlink" width="100%" height="100%" version="1.1" viewBox="0 0 640 360" xml:space="preserve" style="fill-rule:evenodd;clip-rule:evenodd;stroke-linejoin:round;stroke-miterlimit:1.5"><rect id="Artboard1" width="640" height="360" x="0" y="0" style="fill:none"/><rect id="background" width="640" height="360" x="0" y="0" style="fill:#181818"/><defs><style/></defs><rect id="active_background" width="561" height="282" x="79" y="78" style="fill:#242424"/><g id="controls"><rect width="24" height="24" x="307" y="12" style="fill:none;fill-rule:nonzero"/><path d="M315,17l0,14l11,-7l-11,-7Z" style="fill:#959595;fill-rule:nonzero"/><rect width="24" height="24" x="343" y="12" style="fill:none;fill-rule:nonzero"/><path d="M349,30l8.5,-6l-8.5,-6l0,12Zm10,-12l0,12l2,0l0,-12l-2,0Z" style="fill:#959595;fill-rule:nonzero"/><rect width="24" height="24" x="271" y="12" style="fill:none;fill-rule:nonzero"/><path d="M277,18l2,0l0,12l-2,0l0,-12Zm3.5,6l8.5,6l0,-12l-8.5,6Z" style="fill:#959595;fill-rule:nonzero"/><rect width="24" height="24" x="379" y="12" style="fill:none;fill-rule:nonzero"/><path d="M386,19l10,0l0,3l4,-4l-4,-4l0,3l-12,0l0,6l2,0l0,-4Zm10,10l-10,0l0,-3l-4,4l4,4l0,-3l12,0l0,-6l-2,0l0,4Z" style="fill:#959595;fill-rule:nonzero"/><rect width="24" height="24" x="235" y="12" style="fill:none;fill-rule:nonzero"/><path d="M238,21l0,6l4,0l5,5l0,-16l-5,5l-4,0Zm13.5,3c0,-1.77 -1.02,-3.29 -2.5,-4.03l0,8.05c1.48,-0.73 2.5,-2.25 2.5,-4.02Zm-2.5,-8.77l0,2.06c2.89,0.86 5,3.54 5,6.71c0,3.17 -2.11,5.85 -5,6.71l0,2.06c4.01,-0.91 7,-4.49 7,-8.77c0,-4.28 -2.99,-7.86 -7,-8.77Z" style="fill:#959595;fill-rule:nonzero"/></g><g id="lines"><path d="M271,78l0,282" style="fill:none;stroke:#1d1d1d;stroke-width:2px"/><path d="M463,78l0,282" style="fill:none;stroke:#1d1d1d;stroke-width:2px"/><path d="M295,78l0,282" style="fill:none;stroke:#202020;stroke-width:2px"/><path d="M487,78l0,282" style="fill:none;stroke:#202020;stroke-width:2px"/><path d="M199,78l0,282" style="fill:none;stroke:#202020;stroke-width:2px"/><path d="M415,78l0,282" style="fill:none;stroke:#1d1d1d;stroke-width:2px"/><path d="M607,78l0,282" style="fill:none;stroke:#1d1d1d;stroke-width:2px"/><path d="M175,78l0,282" style="fill:none;stroke:#1d1d1d;stroke-width:2px"/><path d="M439,78l0,282" style="fill:none;stroke:#202020;stroke-width:2px"/><path d="M631,78l0,282" style="fill:none;stroke:#202020;stroke-width:2px"/><path d="M223,78l0,282" style="fill:none;stroke:#1d1d1d;stroke-width:2px"/><path d="M367,78l0,282" style="fill:none;stroke:#1d1d1d;stroke-width:2px"/><path d="M559,78l0,282" style="fill:none;stroke:#1d1d1d;stroke-width:2px"/><path d="M127,78l0,282" style="fill:none;stroke:#1d1d1d;stroke-width:2px"/><path d="M391,78l0,282" style="fill:none;stroke:#202020;stroke-width:2px"/><path d="M583,78l0,282" style="fill:none;stroke:#202020;stroke-width:2px"/><path d="M151,78l0,282" style="fill:none;stroke:#202020;stroke-width:2px"/><path d="M319,78l0,282" style="fill:none;stroke:#1d1d1d;stroke-width:2px"/><path d="M511,78l0,282" style="fill:none;stroke:#1d1d1d;stroke-width:2px"/><path d="M79,78l0,282" style="fill:none;stroke:#1d1d1d;stroke-width:2px"/><path d="M31,78l-0,282" style="fill:none;stroke:#1d1d1d;stroke-width:2px"/><path d="M640,48l-640,0" style="fill:none;stroke:#1d1d1d;stroke-width:2px"/><path d="M343,78l0,282" style="fill:none;stroke:#202020;stroke-width:2px"/><path d="M535,78l0,282" style="fill:none;stroke:#202020;stroke-width:2px"/><path d="M103,78l0,282" style="fill:none;stroke:#202020;stroke-width:2px"/><path d="M55,78l-0,282" style="fill:none;stroke:#202020;stroke-width:2px"/><path d="M7,78l-0,282" style="fill:none;stroke:#202020;stroke-width:2px"/><path d="M640,78l-640,0" style="fill:none;stroke:#1d1d1d;stroke-width:2px"/></g><path id="event_background" d="M308.534,144c0,-6.627 -5.372,-12 -12,-12l-121.068,0c-6.628,0 -12,5.373 -12,12l-0,0c-0,6.627 5.372,12 12,12l121.068,0c6.628,-0 12,-5.373 12,-12l0,-0Z" style="fill:#274358"/><g id="scene"><path d="M637,88c0,-1.061 -0.421,-2.078 -1.172,-2.828c-0.75,-0.751 -1.767,-1.172 -2.828,-1.172c-47.186,0 -496.814,0 -544,0c-1.061,-0 -2.078,0.421 -2.828,1.172c-0.751,0.75 -1.172,1.767 -1.172,2.828c0,8.02 0,25.98 0,34c-0,1.061 0.421,2.078 1.172,2.828c0.75,0.751 1.767,1.172 2.828,1.172c47.186,0 496.814,0 544,0c1.061,0 2.078,-0.421 2.828,-1.172c0.751,-0.75 1.172,-1.767 1.172,-2.828c0,-8.02 0,-25.98 0,-34Z" style="fill:#444"/><text x="103" y="109.11" style="font-family:'JetBrainsMono-Regular','JetBrains Mono',monospace;font-size:14px;fill:#fff;fill-opacity:.6">scene</text></g><g id="range"><path fill="#242424" stroke="#444" stroke-width="2" d="M740,48l-657,0c-2.208,0 -4,1.792 -4,4l-0,22c-0,2.208 1.792,4 4,4l557,0"/></g><g id="event"><path d="M407,144c-0,-6.627 -5.373,-12 -12,-12c-26.121,0 -87.879,0 -114,0c-6.627,0 -12,5.373 -12,12c0,0 0,0 0,0c0,6.627 5.373,12 12,12c26.121,0 87.879,0 114,0c6.627,-0 12,-5.373 12,-12c0,0 0,0 0,-0Z" style="fill:#274358"/><path d="M431,144c-0,-6.627 -5.373,-12 -12,-12l-48,0l0,12c0,3.183 1.264,6.235 3.515,8.485c2.25,2.251 5.302,3.515 8.485,3.515l36,0c6.627,0 12,-5.373 12,-12l0,-0Z" style="fill:#33a6ff"/><path d="M431,144c-0,6.627 -5.373,12 -12,12l-36,0c-3.183,0 -6.235,-1.264 -8.485,-3.515c-2.251,-2.25 -3.515,-5.302 -3.515,-8.485l0,-12l48,-0c6.627,-0 12,5.373 12,12Zm-2,-0c-0,-5.523 -4.477,-10 -10,-10l-46,0l0,10c0,2.652 1.054,5.196 2.929,7.071c1.875,1.875 4.419,2.929 7.071,2.929l36,0c5.523,0 10,-4.477 10,-10Z" style="fill:#fff"/><text x="380" y="148.11" style="font-family:'JetBrainsMono-Regular','JetBrains Mono',monospace;font-size:14px;fill-opacity:.87">event</text><g><rect width="24" height="24" x="423" y="152" style="fill:none"/></g><g><g><g><path d="M446,157.5l0,14.5c0,2.2 -1.8,4 -4,4l-7.3,0c-1.08,0 -2.1,-0.43 -2.85,-1.19l-7.85,-7.98c0,0 1.26,-1.23 1.3,-1.25c0.22,-0.19 0.49,-0.29 0.79,-0.29c0.22,0 0.42,0.06 0.6,0.16c0.04,0.01 4.31,2.46 4.31,2.46l0,-11.91c0,-0.83 0.67,-1.5 1.5,-1.5c0.83,0 1.5,0.67 1.5,1.5l0,7l1,0l0,-9.5c0,-0.83 0.67,-1.5 1.5,-1.5c0.83,0 1.5,0.67 1.5,1.5l0,9.5l1,0l0,-8.5c0,-0.83 0.67,-1.5 1.5,-1.5c0.83,0 1.5,0.67 1.5,1.5l0,8.5l1,0l0,-5.5c0,-0.83 0.67,-1.5 1.5,-1.5c0.83,0 1.5,0.67 1.5,1.5Z" style="fill:#fff;fill-rule:nonzero"/></g></g></g></g><path id="voice" d="M79,210l126,0l2,-4l2,14l2,-22l2,26l2,-30l2,34l2,-44l2,40l2,-40l2,54l2,-62l2,54l2,-38l2,38l2,-42l2,38l2,-30l2,26l2,-20l2,14l2,-12l2,10l2,-12l2,18l2,-16l2,10l2,-6l2,2l16,0l2,-4l2,8l2,-10l2,18l2,-30l2,36l2,-40l2,42l2,-50l2,54l2,-52l2,58l2,-54l2,50l2,-44l2,40l2,-42l2,38.091l2,-44.091l2,46l2,-50l2,52l2,-50l2,52l2,-46l2,42l2,-32l2,28l2,-26l2,20l2,-16l2,20l2,-24l2,30l2,-36l2,40l2,-48l2,50l2,-44l2,36l2,-30l2.415,24l1.585,-18l2,14l2,-20l2,26l2,-22l2,16l2,-10l2,2l262,0" style="fill:none;stroke:#444;stroke-width:2px;stroke-linecap:square"/><g id="numbers"><text x="215.8" y="67.38" style="font-family:'JetBrainsMono-Bold','JetBrains Mono',monospace;font-weight:700;font-size:12px;fill:#959595">30</text><text x="167.8" y="67.38" style="font-family:'JetBrainsMono-Bold','JetBrains Mono',monospace;font-weight:700;font-size:12px;fill:#959595">30</text><text x="119.8" y="67.38" style="font-family:'JetBrainsMono-Bold','JetBrains Mono',monospace;font-weight:700;font-size:12px;fill:#959595">10</text><text x="75.4" y="67.38" style="font-family:'JetBrainsMono-Bold','JetBrains Mono',monospace;font-weight:700;font-size:12px;fill:#959595">0</text><text x="263.8" y="67.38" style="font-family:'JetBrainsMono-Bold','JetBrains Mono',monospace;font-weight:700;font-size:12px;fill:#959595">40</text><text x="311.8" y="67.38" style="font-family:'JetBrainsMono-Bold','JetBrains Mono',monospace;font-weight:700;font-size:12px;fill:#959595">50</text><text x="455.8" y="67.38" style="font-family:'JetBrainsMono-Bold','JetBrains Mono',monospace;font-weight:700;font-size:12px;fill:#959595">80</text><text x="407.8" y="67.38" style="font-family:'JetBrainsMono-Bold','JetBrains Mono',monospace;font-weight:700;font-size:12px;fill:#959595">70</text><text x="548.2" y="67.38" style="font-family:'JetBrainsMono-Bold','JetBrains Mono',monospace;font-weight:700;font-size:12px;fill:#959595">100</text><text x="359.8" y="67.38" style="font-family:'JetBrainsMono-Bold','JetBrains Mono',monospace;font-weight:700;font-size:12px;fill:#959595">60</text><text x="503.8" y="67.38" style="font-family:'JetBrainsMono-Bold','JetBrains Mono',monospace;font-weight:700;font-size:12px;fill:#959595">90</text><text x="596.2" y="67.38" style="font-family:'JetBrainsMono-Bold','JetBrains Mono',monospace;font-weight:700;font-size:12px;fill:#959595">110</text><text x="20.2" y="67.38" style="font-family:'JetBrainsMono-Bold','JetBrains Mono',monospace;font-weight:700;font-size:12px;fill:#959595">-10</text></g><g id="playhead"><path d="M259,58c0,-1.061 -0.421,-2.078 -1.172,-2.828c-0.75,-0.751 -1.767,-1.172 -2.828,-1.172c-4.439,0 -11.561,0 -16,0c-1.061,-0 -2.078,0.421 -2.828,1.172c-0.751,0.75 -1.172,1.767 -1.172,2.828c0,2.977 0,7.023 0,10c-0,1.061 0.421,2.078 1.172,2.828c0.75,0.751 1.767,1.172 2.828,1.172c4.439,0 11.561,0 16,0c1.061,0 2.078,-0.421 2.828,-1.172c0.751,-0.75 1.172,-1.767 1.172,-2.828c-0,-2.977 -0,-7.023 -0,-10Z" style="fill:#32a1f6"/><text x="239.8" y="67.38" style="font-family:'JetBrainsMono-Bold','JetBrains Mono',monospace;font-weight:700;font-size:12px;fill:#fff">35</text><path d="M247,72l0,288" style="fill:none;stroke:#32a1f6;stroke-width:2px"/></g></svg>